<?xml version="1.0" encoding="UTF-8" standalone="no"?>
<svg width="230px" height="90px" viewBox="0 0 230 90" version="1.1" xmlns="http://www.w3.org/2000/svg" xmlns:xlink="http://www.w3.org/1999/xlink">
    <!-- Generator: Sketch 40.3 (33839) - http://www.bohemiancoding.com/sketch -->
    <title>LambdaSpace_LogoD_LightBG</title>
    <desc>Created with Sketch.</desc>
    <defs></defs>
    <g id="Logos" stroke="none" stroke-width="1" fill="none" fill-rule="evenodd">
        <g id="LambdaSpace_LogoD_LightBG">
            <g id="LambdaSpace_TextTwoLines_LightBG" transform="translate(96.000000, 15.000000)">
                <path d="M17.112,21.892 L17.112,25 L5.254,25 L5.254,4.756 L9.02,4.756 L9.02,21.892 L17.112,21.892 Z M31.696,17.356 L29.232,10.622 C29.1106661,10.3233318 28.9846673,9.96866872 28.854,9.558 C28.7233327,9.14733128 28.5926673,8.70400238 28.462,8.228 C28.3406661,8.70400238 28.2146673,9.14966459 28.084,9.565 C27.9533327,9.98033541 27.8273339,10.3419985 27.706,10.65 L25.256,17.356 L31.696,17.356 Z M38.346,25 L35.434,25 C35.1073317,25 34.8413344,24.9183341 34.636,24.755 C34.4306656,24.5916658 34.2766672,24.3886679 34.174,24.146 L32.662,20.016 L24.276,20.016 L22.764,24.146 C22.689333,24.3606677 22.5446677,24.5566658 22.33,24.734 C22.1153323,24.9113342 21.8493349,25 21.532,25 L18.592,25 L26.558,4.756 L30.394,4.756 L38.346,25 Z M61.998,4.756 L61.998,25 L58.68,25 L58.68,11.924 C58.68,11.4013307 58.7079997,10.8366697 58.764,10.23 L52.646,21.724 C52.3566652,22.2746694 51.9133363,22.55 51.316,22.55 L50.784,22.55 C50.1866637,22.55 49.7433348,22.2746694 49.454,21.724 L43.266,10.188 C43.2940001,10.4960015 43.3173332,10.7993318 43.336,11.098 C43.3546668,11.3966682 43.364,11.6719987 43.364,11.924 L43.364,25 L40.046,25 L40.046,4.756 L42.888,4.756 C43.0560008,4.756 43.2006661,4.76066662 43.322,4.77 C43.4433339,4.77933338 43.5529995,4.80266648 43.651,4.84 C43.7490005,4.87733352 43.8376663,4.93799958 43.917,5.022 C43.9963337,5.10600042 44.073333,5.2179993 44.148,5.358 L50.21,16.6 C50.3686675,16.8986682 50.515666,17.2066651 50.651,17.524 C50.786334,17.8413349 50.9193327,18.1679983 51.05,18.504 C51.1806673,18.1586649 51.3159993,17.8250016 51.456,17.503 C51.5960007,17.1809984 51.7453325,16.8706682 51.904,16.572 L57.882,5.358 C57.956667,5.2179993 58.0359996,5.10600042 58.12,5.022 C58.2040004,4.93799958 58.2949995,4.87733352 58.393,4.84 C58.4910005,4.80266648 58.6006661,4.77933338 58.722,4.77 C58.8433339,4.76066662 58.9879992,4.756 59.156,4.756 L61.998,4.756 Z M73.28,22.06 C73.9800035,22.06 74.5679976,21.9760008 75.044,21.808 C75.5200024,21.6399992 75.9003319,21.4160014 76.185,21.136 C76.4696681,20.8559986 76.6749994,20.5293352 76.801,20.156 C76.9270006,19.7826648 76.99,19.3860021 76.99,18.966 C76.99,18.5273311 76.9200007,18.1330017 76.78,17.783 C76.6399993,17.4329982 76.4206682,17.1343346 76.122,16.887 C75.8233318,16.6396654 75.4383357,16.4506673 74.967,16.32 C74.4956643,16.1893327 73.92867,16.124 73.266,16.124 L69.472,16.124 L69.472,22.06 L73.28,22.06 Z M69.472,7.668 L69.472,13.52 L72.468,13.52 C73.7560064,13.52 74.7289967,13.286669 75.387,12.82 C76.0450033,12.353331 76.374,11.6113384 76.374,10.594 C76.374,9.53932806 76.0753363,8.78800224 75.478,8.34 C74.8806637,7.89199776 73.9473397,7.668 72.678,7.668 L69.472,7.668 Z M72.678,4.756 C74.00334,4.756 75.1373286,4.88199874 76.08,5.134 C77.0226714,5.38600126 77.794997,5.745331 78.397,6.212 C78.999003,6.678669 79.4399986,7.24333002 79.72,7.906 C80.0000014,8.56866998 80.14,9.31532918 80.14,10.146 C80.14,10.6220024 80.0700007,11.0769978 79.93,11.511 C79.7899993,11.9450022 79.5730015,12.3509981 79.279,12.729 C78.9849985,13.1070019 78.6116689,13.4499985 78.159,13.758 C77.7063311,14.0660015 77.1673365,14.3273323 76.542,14.542 C79.3233472,15.1673365 80.714,16.6699881 80.714,19.05 C80.714,19.908671 80.5506683,20.7019964 80.224,21.43 C79.8973317,22.1580036 79.4213365,22.785664 78.796,23.313 C78.1706635,23.840336 77.4006712,24.2533318 76.486,24.552 C75.5713288,24.8506682 74.5260059,25 73.35,25 L65.706,25 L65.706,4.756 L72.678,4.756 Z M101.72,14.878 C101.72,16.3620074 101.472669,17.7246605 100.978,18.966 C100.483331,20.2073395 99.7880045,21.2759955 98.892,22.172 C97.9959955,23.0680045 96.9180063,23.7633309 95.658,24.258 C94.3979937,24.7526691 92.9980077,25 91.458,25 L83.744,25 L83.744,4.756 L91.458,4.756 C92.9980077,4.756 94.3979937,5.00566417 95.658,5.505 C96.9180063,6.00433583 97.9959955,6.69966221 98.892,7.591 C99.7880045,8.48233779 100.483331,9.54866046 100.978,10.79 C101.472669,12.0313395 101.72,13.3939926 101.72,14.878 L101.72,14.878 Z M97.856,14.878 C97.856,13.7673278 97.7090015,12.7710044 97.415,11.889 C97.1209985,11.0069956 96.6963361,10.2603364 96.141,9.649 C95.5856639,9.03766361 94.9136706,8.5686683 94.125,8.242 C93.3363294,7.9153317 92.4473383,7.752 91.458,7.752 L87.524,7.752 L87.524,22.004 L91.458,22.004 C92.4473383,22.004 93.3363294,21.8406683 94.125,21.514 C94.9136706,21.1873317 95.5856639,20.7183364 96.141,20.107 C96.6963361,19.4956636 97.1209985,18.7490044 97.415,17.867 C97.7090015,16.9849956 97.856,15.9886722 97.856,14.878 L97.856,14.878 Z M115.134,17.356 L112.67,10.622 C112.548666,10.3233318 112.422667,9.96866872 112.292,9.558 C112.161333,9.14733128 112.030667,8.70400238 111.9,8.228 C111.778666,8.70400238 111.652667,9.14966459 111.522,9.565 C111.391333,9.98033541 111.265334,10.3419985 111.144,10.65 L108.694,17.356 L115.134,17.356 Z M121.784,25 L118.872,25 C118.545332,25 118.279334,24.9183341 118.074,24.755 C117.868666,24.5916658 117.714667,24.3886679 117.612,24.146 L116.1,20.016 L107.714,20.016 L106.202,24.146 C106.127333,24.3606677 105.982668,24.5566658 105.768,24.734 C105.553332,24.9113342 105.287335,25 104.97,25 L102.03,25 L109.996,4.756 L113.832,4.756 L121.784,25 Z" id="LAMBDA" fill="#475260"></path>
                <path d="M15.824,38.074 C15.7399996,38.2140007 15.6490005,38.3189996 15.551,38.389 C15.4529995,38.4590003 15.3340007,38.494 15.194,38.494 C15.0353325,38.494 14.8486677,38.4146675 14.634,38.256 C14.4193323,38.0973325 14.1510016,37.9223343 13.829,37.731 C13.5069984,37.5396657 13.1196689,37.3646675 12.667,37.206 C12.2143311,37.0473325 11.6660032,36.968 11.022,36.968 C10.4153303,36.968 9.88100231,37.0496658 9.419,37.213 C8.95699769,37.3763341 8.56966823,37.5979986 8.257,37.878 C7.94433177,38.1580014 7.70866746,38.4869981 7.55,38.865 C7.39133254,39.2430019 7.312,39.6513311 7.312,40.09 C7.312,40.6500028 7.44966529,41.1143315 7.725,41.483 C8.00033471,41.8516685 8.36433107,42.1666654 8.817,42.428 C9.26966893,42.6893346 9.78299713,42.9156657 10.357,43.107 C10.9310029,43.2983343 11.518997,43.4966656 12.121,43.702 C12.723003,43.9073344 13.3109971,44.1383321 13.885,44.395 C14.4590029,44.651668 14.9723311,44.975998 15.425,45.368 C15.8776689,45.760002 16.2416653,46.2406638 16.517,46.81 C16.7923347,47.3793362 16.93,48.0793292 16.93,48.91 C16.93,49.7873377 16.7806682,50.6109961 16.482,51.381 C16.1833318,52.1510038 15.7470029,52.8206638 15.173,53.39 C14.5989971,53.9593362 13.8943375,54.4073317 13.059,54.734 C12.2236625,55.0606683 11.2740053,55.224 10.21,55.224 C8.9033268,55.224 7.71800532,54.9883357 6.654,54.517 C5.58999468,54.0456643 4.68000378,53.4086707 3.924,52.606 L4.708,51.318 C4.78266704,51.2153328 4.87366613,51.1290003 4.981,51.059 C5.08833387,50.9889996 5.20733268,50.954 5.338,50.954 C5.45933394,50.954 5.59699923,51.0029995 5.751,51.101 C5.90500077,51.1990005 6.07999902,51.3226659 6.276,51.472 C6.47200098,51.6213341 6.69599874,51.7846658 6.948,51.962 C7.20000126,52.1393342 7.48699839,52.3026659 7.809,52.452 C8.13100161,52.6013341 8.49733128,52.7249995 8.908,52.823 C9.31866872,52.9210005 9.7806641,52.97 10.294,52.97 C10.9380032,52.97 11.5119975,52.8813342 12.016,52.704 C12.5200025,52.5266658 12.9469983,52.2770016 13.297,51.955 C13.6470018,51.6329984 13.9153324,51.2480022 14.102,50.8 C14.2886676,50.3519978 14.382,49.8526694 14.382,49.302 C14.382,48.6953303 14.2443347,48.1983353 13.969,47.811 C13.6936653,47.4236647 13.3320022,47.0993346 12.884,46.838 C12.4359978,46.5766654 11.9226696,46.3550009 11.344,46.173 C10.7653304,45.9909991 10.1773363,45.8043343 9.58,45.613 C8.98266368,45.4216657 8.39466956,45.2000013 7.816,44.948 C7.23733044,44.6959987 6.72400224,44.3693353 6.276,43.968 C5.82799776,43.5666647 5.46633471,43.065003 5.191,42.463 C4.91566529,41.860997 4.778,41.1166711 4.778,40.23 C4.778,39.5206631 4.91566529,38.83467 5.191,38.172 C5.46633471,37.50933 5.86766403,36.9213359 6.395,36.408 C6.92233597,35.8946641 7.57099615,35.4840015 8.341,35.176 C9.11100385,34.8679985 9.99532834,34.714 10.994,34.714 C12.1140056,34.714 13.1336621,34.8913316 14.053,35.246 C14.9723379,35.6006684 15.7819965,36.1139966 16.482,36.786 L15.824,38.074 Z M26.574,45.34 C27.3486705,45.34 28.0323304,45.2373344 28.625,45.032 C29.2176696,44.8266656 29.716998,44.5396685 30.123,44.171 C30.529002,43.8023315 30.8346656,43.3613359 31.04,42.848 C31.2453344,42.3346641 31.348,41.7700031 31.348,41.154 C31.348,39.8753269 30.9536706,38.8766703 30.165,38.158 C29.3763294,37.4393297 28.1793414,37.08 26.574,37.08 L23.354,37.08 L23.354,45.34 L26.574,45.34 Z M26.574,34.938 C27.8433397,34.938 28.9469953,35.0849985 29.885,35.379 C30.8230047,35.6730015 31.5999969,36.090664 32.216,36.632 C32.8320031,37.173336 33.2916652,37.8266628 33.595,38.592 C33.8983348,39.3573372 34.05,40.2113286 34.05,41.154 C34.05,42.087338 33.8866683,42.9413295 33.56,43.716 C33.2333317,44.4906705 32.7550032,45.1579972 32.125,45.718 C31.4949968,46.2780028 30.7156713,46.7143318 29.787,47.027 C28.8583287,47.3396682 27.7873394,47.496 26.574,47.496 L23.354,47.496 L23.354,55 L20.652,55 L20.652,34.938 L26.574,34.938 Z M45.82,47.552 L42.67,39.39 C42.5766662,39.1473321 42.4786672,38.8650016 42.376,38.543 C42.2733328,38.2209984 42.1753338,37.8780018 42.082,37.514 C41.885999,38.2700038 41.6853344,38.8999975 41.48,39.404 L38.33,47.552 L45.82,47.552 Z M51.476,55 L49.376,55 C49.1333321,55 48.9373341,54.9393339 48.788,54.818 C48.6386659,54.6966661 48.526667,54.5426676 48.452,54.356 L46.576,49.512 L37.574,49.512 L35.698,54.356 C35.6419997,54.5240008 35.5346675,54.6733327 35.376,54.804 C35.2173325,54.9346673 35.0213345,55 34.788,55 L32.688,55 L40.71,34.938 L43.454,34.938 L51.476,55 Z M67.088,50.856 C67.2373341,50.856 67.3679994,50.9166661 67.48,51.038 L68.558,52.2 C67.7366626,53.1520048 66.7403392,53.8939973 65.569,54.426 C64.3976608,54.9580027 62.9813416,55.224 61.32,55.224 C59.8826595,55.224 58.5760059,54.9743358 57.4,54.475 C56.2239941,53.9756642 55.2206708,53.2756712 54.39,52.375 C53.5593292,51.4743288 52.9153356,50.3940063 52.458,49.134 C52.0006644,47.8739937 51.772,46.4880076 51.772,44.976 C51.772,43.4639924 52.0099976,42.0780063 52.486,40.818 C52.9620024,39.5579937 53.6316623,38.4753379 54.495,37.57 C55.3583376,36.6646621 56.391994,35.9623358 57.596,35.463 C58.800006,34.9636642 60.1299927,34.714 61.586,34.714 C63.0140071,34.714 64.2739945,34.9426644 65.366,35.4 C66.4580055,35.8573356 67.4193292,36.4779961 68.25,37.262 L67.354,38.508 C67.2979997,38.6013338 67.2256671,38.678333 67.137,38.739 C67.0483329,38.799667 66.9293341,38.83 66.78,38.83 C66.6119992,38.83 66.4066679,38.7390009 66.164,38.557 C65.9213321,38.3749991 65.604002,38.1720011 65.212,37.948 C64.819998,37.7239989 64.3300029,37.5210009 63.742,37.339 C63.1539971,37.1569991 62.430671,37.066 61.572,37.066 C60.5359948,37.066 59.588671,37.2456649 58.73,37.605 C57.871329,37.9643351 57.1316698,38.4846633 56.511,39.166 C55.8903302,39.8473367 55.4073351,40.6779951 55.062,41.658 C54.7166649,42.6380049 54.544,43.7439938 54.544,44.976 C54.544,46.2266729 54.7236649,47.3419951 55.083,48.322 C55.4423351,49.3020049 55.9323302,50.13033 56.553,50.807 C57.1736698,51.4836701 57.9063291,51.9993316 58.751,52.354 C59.5956709,52.7086684 60.5079951,52.886 61.488,52.886 C62.0853363,52.886 62.6243309,52.8510003 63.105,52.781 C63.5856691,52.7109996 64.028998,52.6013341 64.435,52.452 C64.841002,52.3026659 65.2189982,52.1136678 65.569,51.885 C65.9190018,51.6563322 66.2666649,51.3833349 66.612,51.066 C66.7706675,50.9259993 66.9293325,50.856 67.088,50.856 L67.088,50.856 Z M83.584,52.788 L83.57,55 L71.208,55 L71.208,34.938 L83.57,34.938 L83.57,37.15 L73.924,37.15 L73.924,43.814 L81.736,43.814 L81.736,45.942 L73.924,45.942 L73.924,52.788 L83.584,52.788 Z" id="SPACE" fill="#EFB57E"></path>
            </g>
            <g id="LambdaSpace_Symbol_Opaque" transform="translate(11.000000, 5.000000)" fill="#42505E">
                <path d="M1.6,40 C1.6,61.2076575 18.7923425,78.4 40,78.4 C61.2076575,78.4 78.4,61.2076575 78.4,40 C78.4,18.7923425 61.2076575,1.6 40,1.6 C18.7923425,1.6 1.6,18.7923425 1.6,40 Z M80,40 C80,62.0913131 62.0913131,80 40,80 C17.9086869,80 0,62.0913131 0,40 C0,17.9086869 17.9086869,0 40,0 C62.0913131,0 80,17.9086869 80,40 Z" id="Circle"></path>
                <path d="M50.70008,62.00832 L51.0578497,62.2294322 L26.3074497,12.7294322 L25.8839411,13.302881 L35.7847411,14.952481 L35.4951911,14.7416856 L60.2447911,62.5920856 L60.60008,62.00832 L50.70008,62.00832 Z M60.9553689,62.2245544 L36.2057689,14.3741544 C36.1478582,14.2621909 36.0405584,14.1840755 35.9162189,14.163359 L26.0154189,12.513759 C25.6929577,12.4600328 25.4457115,12.7948148 25.5919103,13.0872078 L50.3423103,62.5872078 C50.4100675,62.7227201 50.5485721,62.80832 50.70008,62.80832 L60.60008,62.80832 C60.8998297,62.80832 61.0930781,62.4907988 60.9553689,62.2245544 Z" id="Fill-3"></path>
                <path d="M21.1855892,14.1929796 L21.1497098,14.9376267 L26.0769098,13.2880267 L25.5921607,13.0876286 L28.0673607,18.0372286 L28.5879892,17.4929796 L21.1855892,14.1929796 Z M28.7828793,17.6794114 L26.3076793,12.7298114 C26.2185605,12.5516025 26.0118724,12.4661565 25.8229302,12.5294133 L20.8957302,14.1790133 C20.5498872,14.2947997 20.5267419,14.77516 20.8598508,14.9236604 L28.2622508,18.2236604 C28.605228,18.3765601 28.9508365,18.0152716 28.7828793,17.6794114 Z" id="Fill-5"></path>
                <path d="M30.90008,62.80832 C31.018789,62.80832 31.1313655,62.7555934 31.2073631,62.6644003 L43.5825631,47.8148003 C43.6843052,47.692715 43.704123,47.5219789 43.6330509,47.3798346 L39.9202509,39.9542346 C39.7912468,39.6962265 39.4398569,39.6554446 39.2551897,39.8770484 L20.6927897,62.1522484 C20.4756834,62.4127797 20.6609463,62.80832 21.00008,62.80832 L30.90008,62.80832 Z M21.3073703,62.6643916 L39.8697703,40.3891916 L39.2047091,40.3120054 L42.9175091,47.7376054 L42.9679969,47.3026397 L30.5927969,62.1522397 L30.90008,62.00832 L21.00008,62.00832 L21.3073703,62.6643916 Z" id="Fill-7"></path>
                <path d="M60.2444689,62.5916814 C60.3844487,62.8623236 60.7635457,62.8833312 60.9325718,62.6298125 L64.2325718,57.6802125 C64.4098001,57.4143916 64.2192449,57.05832 63.89976,57.05832 L58.03976,57.05832 C57.7400124,57.05832 57.5467638,57.3758372 57.6844689,57.6420814 L60.2444689,62.5916814 Z M58.03976,57.85832 L63.89976,57.85832 L63.5669482,57.2364275 L60.2669482,62.1860275 L60.9550511,62.2241586 L58.3950511,57.2745586 L58.03976,57.85832 Z" id="Fill-9"></path>
            </g>
        </g>
    </g>
</svg>